<mxfile host="Electron" modified="2023-12-03T23:18:30.181Z" agent="Mozilla/5.0 (X11; Linux x86_64) AppleWebKit/537.36 (KHTML, like Gecko) draw.io/22.1.2 Chrome/114.0.5735.289 Electron/25.9.4 Safari/537.36" etag="ADXRkHra50YAQ_pC8FKW" version="22.1.2" type="device">
  <diagram id="C5RBs43oDa-KdzZeNtuy" name="Page-1">
    <mxGraphModel dx="1050" dy="723" grid="1" gridSize="10" guides="1" tooltips="1" connect="1" arrows="1" fold="1" page="1" pageScale="1" pageWidth="827" pageHeight="1169" math="0" shadow="0">
      <root>
        <mxCell id="WIyWlLk6GJQsqaUBKTNV-0" />
        <mxCell id="WIyWlLk6GJQsqaUBKTNV-1" parent="WIyWlLk6GJQsqaUBKTNV-0" />
        <mxCell id="qFyBwQBADLYcg3Xm7_co-8" value="" style="edgeStyle=orthogonalEdgeStyle;rounded=0;orthogonalLoop=1;jettySize=auto;html=1;" parent="WIyWlLk6GJQsqaUBKTNV-1" source="qFyBwQBADLYcg3Xm7_co-1" target="qFyBwQBADLYcg3Xm7_co-3" edge="1">
          <mxGeometry relative="1" as="geometry" />
        </mxCell>
        <mxCell id="qFyBwQBADLYcg3Xm7_co-1" value="Начало" style="rounded=1;whiteSpace=wrap;html=1;" parent="WIyWlLk6GJQsqaUBKTNV-1" vertex="1">
          <mxGeometry x="165" y="50" width="120" height="60" as="geometry" />
        </mxCell>
        <mxCell id="qFyBwQBADLYcg3Xm7_co-12" value="" style="edgeStyle=orthogonalEdgeStyle;rounded=0;orthogonalLoop=1;jettySize=auto;html=1;" parent="WIyWlLk6GJQsqaUBKTNV-1" source="qFyBwQBADLYcg3Xm7_co-2" target="qFyBwQBADLYcg3Xm7_co-4" edge="1">
          <mxGeometry relative="1" as="geometry" />
        </mxCell>
        <mxCell id="qFyBwQBADLYcg3Xm7_co-2" value="i = 0&lt;br&gt;size = len(a)" style="rounded=0;whiteSpace=wrap;html=1;" parent="WIyWlLk6GJQsqaUBKTNV-1" vertex="1">
          <mxGeometry x="160" y="230" width="130" height="50" as="geometry" />
        </mxCell>
        <mxCell id="qFyBwQBADLYcg3Xm7_co-11" value="" style="edgeStyle=orthogonalEdgeStyle;rounded=0;orthogonalLoop=1;jettySize=auto;html=1;" parent="WIyWlLk6GJQsqaUBKTNV-1" source="qFyBwQBADLYcg3Xm7_co-3" target="qFyBwQBADLYcg3Xm7_co-2" edge="1">
          <mxGeometry relative="1" as="geometry" />
        </mxCell>
        <mxCell id="qFyBwQBADLYcg3Xm7_co-3" value="a # array" style="shape=parallelogram;perimeter=parallelogramPerimeter;whiteSpace=wrap;html=1;fixedSize=1;" parent="WIyWlLk6GJQsqaUBKTNV-1" vertex="1">
          <mxGeometry x="165" y="140" width="120" height="60" as="geometry" />
        </mxCell>
        <mxCell id="qFyBwQBADLYcg3Xm7_co-13" value="yes" style="edgeStyle=orthogonalEdgeStyle;rounded=0;orthogonalLoop=1;jettySize=auto;html=1;" parent="WIyWlLk6GJQsqaUBKTNV-1" source="qFyBwQBADLYcg3Xm7_co-4" target="qFyBwQBADLYcg3Xm7_co-5" edge="1">
          <mxGeometry relative="1" as="geometry">
            <Array as="points">
              <mxPoint x="225" y="440" />
              <mxPoint x="225" y="440" />
            </Array>
          </mxGeometry>
        </mxCell>
        <mxCell id="qFyBwQBADLYcg3Xm7_co-14" value="no" style="edgeStyle=orthogonalEdgeStyle;rounded=0;orthogonalLoop=1;jettySize=auto;html=1;" parent="WIyWlLk6GJQsqaUBKTNV-1" source="qFyBwQBADLYcg3Xm7_co-4" target="qFyBwQBADLYcg3Xm7_co-6" edge="1">
          <mxGeometry relative="1" as="geometry" />
        </mxCell>
        <mxCell id="qFyBwQBADLYcg3Xm7_co-4" value="i &amp;lt;= size // 2 - 1" style="rhombus;whiteSpace=wrap;html=1;" parent="WIyWlLk6GJQsqaUBKTNV-1" vertex="1">
          <mxGeometry x="170" y="310" width="110" height="110" as="geometry" />
        </mxCell>
        <mxCell id="qFyBwQBADLYcg3Xm7_co-5" value="a[i], a[size -1 - i] = a[size -1 - i], a[i]&lt;br&gt;i += 1" style="rounded=0;whiteSpace=wrap;html=1;" parent="WIyWlLk6GJQsqaUBKTNV-1" vertex="1">
          <mxGeometry x="120" y="460" width="210" height="60" as="geometry" />
        </mxCell>
        <mxCell id="qFyBwQBADLYcg3Xm7_co-15" value="" style="edgeStyle=orthogonalEdgeStyle;rounded=0;orthogonalLoop=1;jettySize=auto;html=1;" parent="WIyWlLk6GJQsqaUBKTNV-1" source="qFyBwQBADLYcg3Xm7_co-6" target="qFyBwQBADLYcg3Xm7_co-7" edge="1">
          <mxGeometry relative="1" as="geometry" />
        </mxCell>
        <mxCell id="qFyBwQBADLYcg3Xm7_co-6" value="a" style="shape=document;whiteSpace=wrap;html=1;boundedLbl=1;" parent="WIyWlLk6GJQsqaUBKTNV-1" vertex="1">
          <mxGeometry x="345" y="325" width="120" height="80" as="geometry" />
        </mxCell>
        <mxCell id="qFyBwQBADLYcg3Xm7_co-7" value="Конец" style="rounded=1;whiteSpace=wrap;html=1;" parent="WIyWlLk6GJQsqaUBKTNV-1" vertex="1">
          <mxGeometry x="345" y="460" width="120" height="60" as="geometry" />
        </mxCell>
        <mxCell id="qFyBwQBADLYcg3Xm7_co-16" value="" style="endArrow=none;html=1;rounded=0;" parent="WIyWlLk6GJQsqaUBKTNV-1" edge="1">
          <mxGeometry width="50" height="50" relative="1" as="geometry">
            <mxPoint x="225" y="290" as="sourcePoint" />
            <mxPoint x="120" y="490" as="targetPoint" />
            <Array as="points">
              <mxPoint x="80" y="290" />
              <mxPoint x="80" y="490" />
            </Array>
          </mxGeometry>
        </mxCell>
        <mxCell id="qFyBwQBADLYcg3Xm7_co-17" value="Задание на &quot;разворот&quot; массива.&amp;nbsp;&lt;br&gt;Нужно перевернуть массив и записать его в обратном порядке" style="text;html=1;strokeColor=none;fillColor=none;align=center;verticalAlign=middle;whiteSpace=wrap;rounded=0;" parent="WIyWlLk6GJQsqaUBKTNV-1" vertex="1">
          <mxGeometry x="465" y="55" width="235" height="50" as="geometry" />
        </mxCell>
      </root>
    </mxGraphModel>
  </diagram>
</mxfile>
